<svg width="20" height="20" viewBox="0 0 20 20" fill="none" xmlns="http://www.w3.org/2000/svg">
<path fill-rule="evenodd" clip-rule="evenodd" d="M10 0.25C15.3852 0.25 19.75 4.61479 19.75 10C19.75 15.3852 15.3852 19.75 10 19.75C4.61479 19.75 0.25 15.3852 0.25 10C0.25 4.61479 4.61479 0.25 10 0.25ZM13.1903 6.46967C13.4832 6.76256 13.4832 7.23744 13.1903 7.53033L10.8907 9.83L13.1903 12.1297C13.4832 12.4226 13.4832 12.8974 13.1903 13.1903C12.8974 13.4832 12.4226 13.4832 12.1297 13.1903L9.83 10.8907L7.53033 13.1903C7.23744 13.4832 6.76256 13.4832 6.46967 13.1903C6.17678 12.8974 6.17678 12.4226 6.46967 12.1297L8.76934 9.83L6.46967 7.53033C6.17678 7.23744 6.17678 6.76256 6.46967 6.46967C6.76256 6.17678 7.23744 6.17678 7.53033 6.46967L9.83 8.76934L12.1297 6.46967C12.4226 6.17678 12.8974 6.17678 13.1903 6.46967Z" fill="#B52A00"/>
</svg>
